<svg width="72" height="68" viewBox="0 0 72 68" fill="none" xmlns="http://www.w3.org/2000/svg">
<path d="M8.67084 4.81471C6.30162 7.22385 4.47275 10.3279 3.26735 13.5247C1.56318 18.065 0.815003 22.9759 0.31622 27.8405C-1.30483 43.6389 3.10109 61.8464 18.314 66.711C28.539 69.9541 39.5954 66.6184 48.9476 61.8001C62.6641 54.7117 82.0335 32.6125 65.8647 16.2118C57.1775 7.40917 43.1284 10.6986 32.8618 5.92662C28.0403 3.7028 23.5096 -0.466861 18.023 0.0427648C14.4484 0.367072 11.2479 2.17393 8.67084 4.81471Z" fill="url(#paint0_linear_0_1)"/>
<path d="M60.25 34C60.25 47.3929 49.3929 58.25 36 58.25C22.6071 58.25 11.75 47.3929 11.75 34C11.75 20.6071 22.6071 9.75 36 9.75C49.3929 9.75 60.25 20.6071 60.25 34Z" stroke="#5BB033" stroke-width="1.5"/>
<path d="M57.9286 34.3507C57.9286 46.2678 48.2679 55.9285 36.3508 55.9285C24.4338 55.9285 14.7731 46.2678 14.7731 34.3507C14.7731 22.4336 24.4338 12.7729 36.3508 12.7729C48.2679 12.7729 57.9286 22.4336 57.9286 34.3507Z" stroke="#5BB033" stroke-width="1.5"/>
<path d="M39.3236 58.6479C51.1004 58.6479 60.6473 49.101 60.6473 37.3242C60.6473 25.5474 51.1004 16.0005 39.3236 16.0005C27.5468 16.0005 17.9999 25.5474 17.9999 37.3242C17.9999 49.101 27.5468 58.6479 39.3236 58.6479Z" fill="#5BB033"/>
<path d="M45.2999 46H34.0499V44.65C35.8499 43.75 36.8999 41.95 36.8999 39.85L36.4499 36.25C36.2999 35.5 36.1499 34.3 36.1499 33.25C36.1499 30.1 38.3999 28 41.3999 28C42.7499 28 43.7999 28.3 44.3999 28.75" stroke="white" stroke-width="2.5" stroke-miterlimit="10" stroke-linecap="round" stroke-linejoin="round"/>
<path d="M33 37.3003H40.95" stroke="white" stroke-width="2.5" stroke-miterlimit="10" stroke-linecap="round" stroke-linejoin="round"/>
<defs>
<linearGradient id="paint0_linear_0_1" x1="-5.21053" y1="1.77851e-07" x2="75.3906" y2="63.7105" gradientUnits="userSpaceOnUse">
<stop stop-color="#D8E9F7"/>
<stop offset="1" stop-color="#F7FBFE"/>
</linearGradient>
</defs>
</svg>
