<svg width="54" height="54" viewBox="0 0 54 54" fill="none" xmlns="http://www.w3.org/2000/svg">
<g filter="url(#filter0_d_0_1)">
<path d="M41 21C41 29.8366 33.8366 37 25 37C16.1634 37 9 29.8366 9 21C9 12.1634 16.1634 5 25 5C33.8366 5 41 12.1634 41 21Z" fill="white"/>
<path d="M25 37.5C34.1127 37.5 41.5 30.1127 41.5 21C41.5 11.8873 34.1127 4.5 25 4.5C15.8873 4.5 8.5 11.8873 8.5 21C8.5 30.1127 15.8873 37.5 25 37.5Z" stroke="#EAF5FE"/>
</g>
<path fill-rule="evenodd" clip-rule="evenodd" d="M16.0811 16.5177C16.4892 15.6208 17.0639 14.8366 17.7407 14.1277C19.2714 12.5271 21.1244 11.4959 23.3157 11.1468C26.3825 10.658 29.1271 11.3831 31.501 13.4241C31.6514 13.553 31.689 13.6282 31.5225 13.7893C30.6847 14.611 29.8629 15.4435 29.0304 16.2707C28.9445 16.3566 28.8854 16.4586 28.735 16.319C26.6457 14.4069 23.2352 14.4284 21.017 16.4909C20.2543 17.1998 19.7118 18.0484 19.3573 19.0206C19.3036 18.9884 19.2499 18.9561 19.2016 18.9185C18.165 18.1236 17.123 17.318 16.0811 16.5177Z" fill="#D7282A"/>
<path fill-rule="evenodd" clip-rule="evenodd" d="M19.3368 22.9365C19.6376 23.6992 20.0082 24.4135 20.5614 25.0258C21.9686 26.578 23.7088 27.2494 25.7981 27.0346C26.7702 26.9325 27.651 26.6049 28.4782 26.1C28.5587 26.1698 28.6339 26.245 28.7145 26.3095C29.6813 27.0668 30.648 27.8187 31.6148 28.5706C30.546 29.5858 29.2892 30.2571 27.8713 30.617C24.5359 31.4656 21.453 30.9285 18.7192 28.7694C17.5859 27.8778 16.6997 26.7767 16.0713 25.4716C17.1616 24.6284 18.2465 23.7798 19.3368 22.9365Z" fill="#45AC43"/>
<path fill-rule="evenodd" clip-rule="evenodd" d="M31.6194 28.5705C30.6527 27.8186 29.6859 27.0613 28.7191 26.3094C28.6332 26.2449 28.558 26.1697 28.4828 26.0999C29.1381 25.6004 29.6859 25.0096 30.0458 24.2577C30.1908 23.9569 30.2875 23.6454 30.3841 23.3285C30.4486 23.1083 30.4271 23.0224 30.1585 23.0277C28.5473 23.0438 26.936 23.0331 25.3247 23.0331C24.981 23.0331 24.981 23.0331 24.981 22.6786C24.981 21.5883 24.9863 20.4926 24.9756 19.4023C24.9756 19.1929 25.0132 19.1123 25.2495 19.1123C28.2196 19.123 31.1898 19.1177 34.1599 19.1177C34.321 19.1177 34.4231 19.1284 34.4499 19.3218C34.8205 21.9213 34.5251 24.4027 33.1609 26.6961C32.7473 27.3997 32.2478 28.0388 31.6194 28.5705Z" fill="#5D7FBE"/>
<path fill-rule="evenodd" clip-rule="evenodd" d="M19.3361 22.9368C18.2458 23.7801 17.1608 24.6287 16.0705 25.4719C15.5388 24.4837 15.2327 23.4202 15.0877 22.3138C14.8406 20.3964 15.1145 18.5541 15.9255 16.7978C15.9685 16.7012 16.0276 16.6099 16.0759 16.5186C17.1179 17.3188 18.1598 18.1245 19.2018 18.9247C19.2501 18.9623 19.3039 18.9946 19.3576 19.0268C18.9225 20.3266 18.944 21.6317 19.3361 22.9368Z" fill="#F4C300"/>
<defs>
<filter id="filter0_d_0_1" x="0" y="0" width="54" height="54" filterUnits="userSpaceOnUse" color-interpolation-filters="sRGB">
<feFlood flood-opacity="0" result="BackgroundImageFix"/>
<feColorMatrix in="SourceAlpha" type="matrix" values="0 0 0 0 0 0 0 0 0 0 0 0 0 0 0 0 0 0 127 0" result="hardAlpha"/>
<feOffset dx="2" dy="6"/>
<feGaussianBlur stdDeviation="5"/>
<feColorMatrix type="matrix" values="0 0 0 0 0 0 0 0 0 0 0 0 0 0 0 0 0 0 0.08 0"/>
<feBlend mode="normal" in2="BackgroundImageFix" result="effect1_dropShadow_0_1"/>
<feBlend mode="normal" in="SourceGraphic" in2="effect1_dropShadow_0_1" result="shape"/>
</filter>
</defs>
</svg>
