<svg width="168" height="101" viewBox="0 0 168 101" fill="none" xmlns="http://www.w3.org/2000/svg">
<path opacity="0.4" d="M-4.41485e-06 3.8147e-05C-3.99403e-06 13.2635 2.62537 26.3972 7.72623 38.6511C12.8271 50.9049 20.3035 62.0391 29.7287 71.4178C39.1538 80.7965 50.3431 88.2361 62.6576 93.3118C74.9722 98.3876 88.1709 101 101.5 101C114.829 101 128.028 98.3875 140.342 93.3118C152.657 88.2361 163.846 80.7965 173.271 71.4178C182.697 62.0391 190.173 50.9049 195.274 38.651C200.375 26.3971 203 13.2635 203 -1.24402e-06L101.5 3.37103e-05L-4.41485e-06 3.8147e-05Z" fill="#2BB7E8"/>
</svg>
