<svg width="164" height="252" viewBox="0 0 164 252" fill="none" xmlns="http://www.w3.org/2000/svg">
<path opacity="0.4" d="M7.62939e-05 -1.43373e-05C21.5369 -1.27113e-05 42.8627 4.24197 62.7601 12.4838C82.6575 20.7255 100.737 32.8057 115.966 48.0345C131.194 63.2633 143.274 81.3425 151.516 101.24C159.758 121.137 164 142.463 164 164C164 185.537 159.758 206.863 151.516 226.76C143.274 246.658 131.194 264.737 115.965 279.966C100.737 295.194 82.6575 307.274 62.7601 315.516C42.8627 323.758 21.5368 328 1.84291e-06 328L6.19566e-05 164L7.62939e-05 -1.43373e-05Z" fill="#2BB7E8"/>
</svg>
