<svg width="72" height="68" viewBox="0 0 72 68" fill="none" xmlns="http://www.w3.org/2000/svg">
<path d="M0.794084 17.0013C-1.12164 27.6457 0.489311 39.0258 4.97384 48.6892C19.9948 81.1618 60.4862 69.1931 70.4567 38.5844C72.1982 33.2867 72.9384 26.9589 70.1084 22.299C66.9735 17.0504 60.6168 15.775 55.0003 15.9222C49.3837 16.0203 43.506 17.0013 38.3248 14.4996C29.7041 10.3302 26.0468 -1.04997 15.2055 0.0782324C6.62833 0.961175 2.40503 8.22093 0.794084 17.0013Z" fill="url(#paint0_linear_0_1)"/>
<path d="M35.5 54C42.4036 54 48 48.1797 48 41C48 33.8203 42.4036 28 35.5 28C28.5964 28 23 33.8203 23 41C23 48.1797 28.5964 54 35.5 54Z" fill="#E3494A"/>
<path d="M38.5483 58.9305C37.0483 58.9305 35.6483 58.9305 34.1483 58.9305C34.0483 58.9305 33.8483 58.8305 33.7483 58.8305C32.3483 58.7305 30.9483 58.6305 29.5483 58.5305C26.5483 58.1305 23.6483 57.4305 20.9483 55.9305C17.9483 54.1305 15.9483 51.6305 15.2483 48.1305C14.7483 45.4305 15.0483 42.7305 15.7483 40.1305C17.1483 35.2305 19.6483 30.9305 22.9483 27.0305C25.2483 24.3305 27.8483 21.9305 30.9483 20.2305C30.9483 20.2305 30.9483 20.1305 31.0483 20.1305C28.6483 18.2305 27.6483 16.9305 26.5483 14.7305C25.9483 13.5305 25.4483 12.3305 25.5483 10.9305C25.5483 9.63052 26.5483 8.83052 27.8483 9.03052C28.2483 9.13052 28.6483 9.23052 29.0483 9.33052C29.9483 9.73052 30.9483 10.1305 31.8483 10.4305C33.0483 10.9305 34.1483 10.9305 35.4483 10.6305C36.9483 10.2305 38.4483 9.73052 39.9483 9.43052C40.8483 9.23052 41.7483 9.13052 42.6483 9.13052C43.3483 9.13052 43.5483 9.33052 43.5483 10.0305C43.5483 10.4305 43.5483 10.8305 43.4483 11.1305C42.6483 14.3305 41.0483 17.2305 38.7483 19.5305C38.6483 19.6305 38.4483 19.6305 38.3483 19.7305C39.6483 20.5305 40.9483 21.1305 42.0483 22.0305C47.3483 25.9305 51.2483 30.9305 54.0483 36.8305C55.4483 39.7305 56.3483 42.7305 56.3483 46.0305C56.3483 50.6305 54.3483 54.1305 50.3483 56.3305C47.7483 57.8305 44.8483 58.4305 41.8483 58.7305C40.6483 58.7305 39.6483 58.8305 38.5483 58.9305Z" stroke="#E3494A" stroke-width="1.5" stroke-miterlimit="10" stroke-linecap="round" stroke-linejoin="round"/>
<path d="M41.5483 35.0303L29.5483 47.0303" stroke="white" stroke-width="1.5" stroke-miterlimit="10" stroke-linecap="round" stroke-linejoin="round"/>
<path d="M31.6483 39.2303C32.8081 39.2303 33.7483 38.2901 33.7483 37.1303C33.7483 35.9705 32.8081 35.0303 31.6483 35.0303C30.4885 35.0303 29.5483 35.9705 29.5483 37.1303C29.5483 38.2901 30.4885 39.2303 31.6483 39.2303Z" stroke="white" stroke-width="1.5" stroke-miterlimit="10" stroke-linecap="round" stroke-linejoin="round"/>
<path d="M39.4483 46.9302C40.6081 46.9302 41.5483 45.99 41.5483 44.8302C41.5483 43.6704 40.6081 42.7302 39.4483 42.7302C38.2885 42.7302 37.3483 43.6704 37.3483 44.8302C37.3483 45.99 38.2885 46.9302 39.4483 46.9302Z" stroke="white" stroke-width="1.5" stroke-miterlimit="10" stroke-linecap="round" stroke-linejoin="round"/>
<defs>
<linearGradient id="paint0_linear_0_1" x1="-5.21053" y1="1.77851e-07" x2="75.3906" y2="63.7105" gradientUnits="userSpaceOnUse">
<stop stop-color="#D8E9F7"/>
<stop offset="1" stop-color="#F7FBFE"/>
</linearGradient>
</defs>
</svg>
