<svg width="68" height="68" viewBox="0 0 68 68" fill="none" xmlns="http://www.w3.org/2000/svg">
<path d="M67.25 50.9987C69.0593 40.3543 67.5379 28.9742 63.3025 19.3108C49.116 -13.1618 10.8741 -1.19306 1.45758 29.4156C-0.187236 34.7133 -0.886279 41.0411 1.78654 45.701C4.74721 50.9496 10.7508 52.225 16.0553 52.0778C21.3598 51.9797 26.911 50.9987 31.8043 53.5004C39.9462 57.6698 43.4003 69.05 53.6392 67.9218C61.7399 67.0388 65.7286 59.7791 67.25 50.9987Z" fill="url(#paint0_linear_437_92)"/>
<path d="M32.2497 8.80928C32.2824 8.80928 32.3151 8.80928 32.3479 8.77449C35.0307 8.56573 37.7135 8.39176 40.3963 8.18299C41.7704 8.07861 43.1772 8.00902 44.5514 7.90464C45.7946 7.83505 47.0706 7.76547 48.3138 7.66108C51.6837 7.66108 55.0863 7.13918 58.4561 7C58.4889 7.06959 58.4234 7.17397 58.3907 7.24356C55.9369 9.78351 53.4504 12.3235 50.9966 14.8634C49.3281 16.5683 47.6595 18.2732 45.9909 19.9781C43.439 22.6921 40.7562 25.3016 38.1388 27.9807C38.1061 28.0155 38.0406 28.0851 37.9752 28.0851C37.8443 28.1199 37.7462 27.9459 37.7135 27.8068C36.6665 24.4318 35.5869 21.0219 34.6708 17.6121C33.8856 14.933 33.0676 12.2191 32.2497 9.53996C32.1843 9.33119 32.1188 9.12243 32.1516 8.91367C32.1843 8.87887 32.217 8.84408 32.2497 8.80928C32.2497 8.84408 32.2497 8.84408 32.2497 8.80928Z" fill="#FD9125"/>
<path d="M28.1819 6.43408L45.4566 62" stroke="#FD9125" stroke-miterlimit="10" stroke-linecap="round"/>
<path d="M38.8116 49.4045C38.2227 49.9264 37.5684 50.344 36.914 50.7963C36.6523 50.9702 36.3579 50.9702 36.0634 50.9702C34.264 50.9702 32.4318 51.005 30.6323 50.9702C30.1089 50.9702 29.6836 51.1442 29.2582 51.4574C26.9353 52.9883 24.5797 54.4496 22.2568 55.9458C21.1117 56.6764 19.9993 57.4419 18.8869 58.2422L15.8442 60.2602C15.3207 60.6082 14.6664 60.5038 14.2411 60.0515L8.38469 53.8233C7.76306 53.1623 7.92665 52.0836 8.64643 51.6313L14.6337 48.0128C17.0875 46.447 19.5085 44.8465 21.9623 43.3156C22.6494 42.8981 23.3037 42.4457 23.8599 41.8542C24.5797 41.0192 24.9723 39.9754 25.2667 38.8968C25.5939 37.6442 25.463 36.6004 25.463 35.313C25.4958 34.6171 25.8556 33.8864 26.4446 33.6081C27.5897 33.0166 28.7675 32.4599 29.9126 31.9032C32.6281 30.5462 35.2782 29.0849 38.0919 27.8671C38.1573 27.8323 38.2554 27.7975 38.3209 27.8323C38.419 27.8671 38.4845 27.9715 38.5499 28.0758C38.9752 28.9457 39.1388 29.9547 38.9752 30.9289C38.7789 32.1467 37.732 32.4251 36.8159 32.8774C35.6708 33.4341 34.5584 34.0604 33.446 34.7563" fill="#FFEDDB"/>
<path d="M38.8116 49.4045C38.2227 49.9264 37.5684 50.344 36.914 50.7963C36.6523 50.9702 36.3579 50.9702 36.0634 50.9702C34.264 50.9702 32.4318 51.005 30.6323 50.9702C30.1089 50.9702 29.6836 51.1442 29.2582 51.4574C26.9353 52.9883 24.5797 54.4496 22.2568 55.9458C21.1117 56.6764 19.9993 57.4419 18.8869 58.2422L15.8442 60.2602C15.3207 60.6082 14.6664 60.5038 14.2411 60.0515L8.38469 53.8233C7.76306 53.1623 7.92665 52.0836 8.64643 51.6313L14.6337 48.0128C17.0875 46.447 19.5085 44.8465 21.9623 43.3156C22.6494 42.8981 23.3037 42.4457 23.8599 41.8542C24.5797 41.0192 24.9723 39.9754 25.2667 38.8968C25.5939 37.6442 25.463 36.6004 25.463 35.313C25.4958 34.6171 25.8556 33.8864 26.4446 33.6081C27.5897 33.0166 28.7675 32.4599 29.9126 31.9032C32.6281 30.5462 35.2782 29.0849 38.0919 27.8671C38.1573 27.8323 38.2554 27.7975 38.3209 27.8323C38.419 27.8671 38.4845 27.9715 38.5499 28.0758C38.9752 28.9457 39.1388 29.9547 38.9752 30.9289C38.7789 32.1467 37.732 32.4251 36.8159 32.8774C35.6708 33.4341 34.5584 34.0604 33.446 34.7563" stroke="#FD9125" stroke-miterlimit="10" stroke-linecap="round"/>
<path d="M30.5014 7.80928C30.5341 7.80928 30.5668 7.80928 30.5995 7.77449C33.2823 7.56573 35.9651 7.39176 38.648 7.18299C40.0221 7.07861 41.4289 7.00902 42.803 6.90464C44.0463 6.83505 45.3223 6.76547 46.5655 6.66108C49.9354 6.66108 53.338 6.13918 56.7078 6C56.7405 6.06959 56.6751 6.17397 56.6424 6.24356C54.1886 8.78351 51.7021 11.3235 49.2483 13.8634C47.5797 15.5683 45.9112 17.2732 44.2426 18.9781C41.6907 21.6921 39.0078 24.3016 36.3905 26.9807C36.3578 27.0155 36.2923 27.0851 36.2269 27.0851C36.096 27.1199 35.9979 26.9459 35.9651 26.8068C34.9182 23.4318 33.8385 20.022 32.9225 16.6121C32.1372 13.933 31.3193 11.2191 30.5014 8.53996C30.436 8.33119 30.3705 8.12243 30.4032 7.91367C30.436 7.87887 30.4687 7.84408 30.5014 7.80928ZM30.5014 7.80928C30.5014 7.84408 30.5014 7.84408 30.5014 7.80928Z" stroke="#FD9125" stroke-miterlimit="10" stroke-linecap="round"/>
<path d="M31.5827 40.8799C30.8956 42.55 29.7178 44.0113 28.2128 44.9856C27.9511 45.1595 27.5912 45.2987 27.3622 45.1247" stroke="#FD9125" stroke-miterlimit="10" stroke-linecap="round"/>
<path d="M34.8415 14.2812C35.3977 14.0028 35.8885 13.6897 36.4119 13.4809C36.8045 13.3417 36.8373 13.0982 36.87 12.7154C36.87 12.0196 36.7718 11.3237 37.0009 10.593C37.557 11.0453 38.1132 11.4977 38.604 11.95C38.8003 12.124 38.9966 12.1587 39.2256 12.0544C39.7491 11.776 40.3053 11.5325 40.9269 11.2541C40.8615 11.95 40.567 12.5067 40.3707 13.0634C40.2071 13.4809 40.2726 13.7593 40.5016 14.0724C40.9596 14.6987 41.3522 15.325 41.843 16.0209C41.1559 16.0557 40.5997 15.7773 40.0435 15.7077C39.0948 15.5338 39.0948 15.499 38.6694 16.4384C38.5713 16.6472 38.4731 16.8211 38.375 17.0299C38.2114 17.3778 38.0151 17.691 37.7861 18.1433C37.4916 17.3082 37.2953 16.5776 37.1644 15.8469C37.0663 15.3946 36.9027 15.151 36.4774 15.0118C35.9212 14.8031 35.365 14.6639 34.8415 14.2812Z" stroke="white" stroke-miterlimit="10" stroke-linecap="round"/>
<path d="M25.3671 21.1526L18.8237 14.1938" stroke="#FD9125" stroke-miterlimit="10" stroke-linecap="round"/>
<path d="M22.1623 27.0659L11.5619 22.6123" stroke="#FD9125" stroke-miterlimit="10" stroke-linecap="round"/>
<path d="M19.6688 33.6067L8.15234 31.3799" stroke="#FD9125" stroke-miterlimit="10" stroke-linecap="round"/>
<path d="M18.1091 39.314L9.8644 41.68" stroke="#FD9125" stroke-miterlimit="10" stroke-linecap="round"/>
<path d="M47.5078 30.1463L58.3045 25.2751" stroke="#FD9125" stroke-miterlimit="10" stroke-linecap="round"/>
<path d="M50.1847 35.8179L59.9999 39.9931" stroke="#FD9125" stroke-miterlimit="10" stroke-linecap="round"/>
<path d="M52.1797 44.8293L59.3775 50.6747" stroke="#FD9125" stroke-miterlimit="10" stroke-linecap="round"/>
<path d="M48.9805 51.2327L55.0986 60.0355" stroke="#FD9125" stroke-miterlimit="10" stroke-linecap="round"/>
<path d="M40.5205 34.5469L35.2203 37.2957C34.566 37.6436 33.7808 37.3305 33.4536 36.6694L33.2573 36.2171C32.9301 35.5212 33.2246 34.6861 33.8462 34.3382L39.1464 31.5895C39.8007 31.2415 40.5859 31.5547 40.9131 32.2158L41.1094 32.6681C41.4366 33.364 41.1421 34.199 40.5205 34.5469Z" fill="#FFEDDB" stroke="#FD9125" stroke-miterlimit="10" stroke-linecap="round"/>
<path d="M42.3492 38.4796L37.049 41.2283C36.3947 41.5763 35.6095 41.2631 35.2823 40.6021L34.8243 39.593C34.4971 38.8972 34.7916 38.0621 35.4132 37.7142L40.7134 34.9654C41.3677 34.6175 42.1529 34.9306 42.4801 35.5917L42.9381 36.6008C43.2653 37.3314 43.0036 38.1665 42.3492 38.4796Z" fill="#FFEDDB" stroke="#FD9125" stroke-miterlimit="10" stroke-linecap="round"/>
<path d="M43.9083 41.7833L38.6082 44.532C37.9538 44.8799 37.1686 44.5668 36.8414 43.9057L36.6451 43.4534C36.318 42.7575 36.6124 41.9225 37.234 41.5745L42.5342 38.8258C43.1886 38.4779 43.9738 38.791 44.3009 39.4521L44.4972 39.9044C44.8244 40.6351 44.5627 41.4701 43.9083 41.7833Z" fill="#FFEDDB" stroke="#FD9125" stroke-miterlimit="10" stroke-linecap="round"/>
<path d="M46.0688 45.716L40.0161 48.8822C39.3618 49.2301 38.5765 48.917 38.2494 48.2559L37.7913 47.2469C37.4642 46.551 37.7586 45.716 38.3802 45.368L44.4656 42.2018C45.12 41.8538 45.9052 42.167 46.2324 42.8281L46.6904 43.8371C46.9849 44.533 46.7231 45.368 46.0688 45.716Z" fill="#FFEDDB" stroke="#FD9125" stroke-miterlimit="10" stroke-linecap="round"/>
<defs>
<linearGradient id="paint0_linear_437_92" x1="72.9211" y1="68" x2="-6.50141" y2="8.70885" gradientUnits="userSpaceOnUse">
<stop stop-color="#FFE8D1"/>
<stop offset="1" stop-color="#FFF8F1"/>
</linearGradient>
</defs>
</svg>
