<svg width="24" height="22" viewBox="0 0 24 22" fill="none" xmlns="http://www.w3.org/2000/svg">
<path d="M19.7994 8.60498C20.5481 10.6846 22.6277 10.6846 22.6277 10.6846" stroke="white" stroke-width="1.5" stroke-miterlimit="10" stroke-linecap="round" stroke-linejoin="round"/>
<path d="M18.4687 9.02107C19.8829 9.02107 21.0475 7.52373 21.0475 5.61048C21.0475 3.69722 19.966 2.1167 18.4687 2.1167C17.9696 2.1167 17.4705 2.28307 17.0546 2.61581" stroke="white" stroke-width="1.5" stroke-miterlimit="10" stroke-linecap="round" stroke-linejoin="round"/>
<path d="M3.82829 8.60498C2.99644 10.6846 1 10.6846 1 10.6846" stroke="white" stroke-width="1.5" stroke-miterlimit="10" stroke-linecap="round" stroke-linejoin="round"/>
<path d="M5.15918 9.02107C3.74504 9.02107 2.58044 7.52373 2.58044 5.61048C2.58044 3.69722 3.66185 2.1167 5.15918 2.1167C5.65829 2.1167 6.15741 2.28307 6.57333 2.61581" stroke="white" stroke-width="1.5" stroke-miterlimit="10" stroke-linecap="round" stroke-linejoin="round"/>
<path d="M9.48494 12.0161C8.23716 15.5931 4.90976 15.1771 4.90976 15.1771C3.16287 15.1771 1.83191 16.7577 1.83191 18.6709V21.0001L21.7963 20.7506V18.5046C21.7963 16.5913 20.3822 15.0108 18.6353 15.094C18.6353 15.094 15.3079 15.5931 13.9769 12.0161" stroke="white" stroke-width="1.5" stroke-miterlimit="10" stroke-linecap="round" stroke-linejoin="round"/>
<path d="M11.8627 12.5153C14.2058 12.4956 16.0836 9.90991 16.0571 6.73992C16.0305 3.56993 14.1095 1.01607 11.7665 1.03572C9.42345 1.05536 7.5456 3.64107 7.57218 6.81106C7.59876 9.98105 9.51971 12.5349 11.8627 12.5153Z" stroke="white" stroke-width="1.5" stroke-miterlimit="10" stroke-linecap="round" stroke-linejoin="round"/>
</svg>
