<svg width="22" height="26" viewBox="0 0 22 26" fill="none" xmlns="http://www.w3.org/2000/svg">
<path d="M3.22107 3.18183V2.54712C3.22107 1.71405 3.97224 1 4.84861 1H19.3712C20.2893 1 20.9988 1.71405 20.9988 2.54712V21.2712C20.9988 22.1439 20.2476 22.8183 19.3712 22.8183H18.6201" stroke="white" stroke-width="1.5" stroke-miterlimit="10"/>
<path d="M17.1487 25.0019H2.62738C1.70937 25.0019 1 24.2878 1 23.4548V4.73071C1 3.85798 1.7511 3.18359 2.62738 3.18359H17.1487C18.0667 3.18359 18.776 3.89765 18.776 4.73071V23.4548C18.8178 24.3275 18.0667 25.0019 17.1487 25.0019Z" stroke="white" stroke-width="1.5" stroke-miterlimit="10"/>
<path d="M5.45386 17.918H14.3427" stroke="white" stroke-width="1.5" stroke-miterlimit="10" stroke-linecap="round"/>
<path d="M5.45386 20.6406H12.1205" stroke="white" stroke-width="1.5" stroke-miterlimit="10" stroke-linecap="round"/>
<path d="M9.89704 11.2158C10.9502 11.2158 11.804 10.3752 11.804 9.33834C11.804 8.30148 10.9502 7.46094 9.89704 7.46094C8.84388 7.46094 7.99011 8.30148 7.99011 9.33834C7.99011 10.3752 8.84388 11.2158 9.89704 11.2158Z" stroke="white" stroke-width="1.5" stroke-miterlimit="10"/>
<path d="M6.55798 15.0046C6.55798 13.443 8.05501 12.1797 9.89066 12.1797C11.7263 12.1797 13.2233 13.443 13.2233 15.0046" stroke="white" stroke-width="1.5" stroke-miterlimit="10" stroke-linecap="round"/>
</svg>
