<svg width="27" height="22" viewBox="0 0 27 22" fill="none" xmlns="http://www.w3.org/2000/svg">
<path d="M23.2407 20.9169C23.9876 20.9169 24.5685 20.6679 25.1494 20.087C25.7303 19.5061 25.9793 18.5102 25.9793 17.7633V17.0994C25.9793 16.9335 25.8963 16.7675 25.8133 16.6015C25.7303 16.5185 25.5643 16.4355 25.3154 16.4355H16.0207C16.0207 16.8505 15.8548 17.1824 15.6058 17.4314C15.3568 17.6804 15.0249 17.7633 14.6929 17.7633H12.1203C11.7884 17.7633 11.4564 17.5974 11.2075 17.3484C10.9585 17.0994 10.7925 16.7675 10.7925 16.4355H1.6639C1.49793 16.4355 1.33195 16.5185 1.16598 16.6015C1.08299 16.8505 1 17.0165 1 17.1824V17.8463C1 18.5932 1.24896 19.5891 1.82988 20.17C2.41079 20.7509 2.9917 20.9999 3.6556 20.9999H6.22822H23.2407V20.9169Z" stroke="white" stroke-width="1.5" stroke-miterlimit="10" stroke-linecap="round" stroke-linejoin="round"/>
<path d="M3.65576 16.1037V2.9917C3.65576 2.41079 3.82174 1.99585 4.23667 1.58091C4.65161 1.16598 5.06655 1 5.64746 1H21.2491C21.83 1 22.245 1.16598 22.6599 1.58091C23.0748 1.99585 23.2408 2.41079 23.2408 2.9917V16.1037" stroke="white" stroke-width="1.5" stroke-miterlimit="10" stroke-linecap="round" stroke-linejoin="round"/>
<path d="M13.4479 5.73047V12.2035" stroke="white" stroke-width="1.5" stroke-miterlimit="10" stroke-linecap="round" stroke-linejoin="round"/>
<path d="M10.2114 8.96729H16.6845" stroke="white" stroke-width="1.5" stroke-miterlimit="10" stroke-linecap="round" stroke-linejoin="round"/>
</svg>
