<svg width="26" height="26" viewBox="0 0 26 26" fill="none" xmlns="http://www.w3.org/2000/svg">
<path d="M19.1163 19.0922C19.1163 21.5076 15.4308 23.5298 10.8504 23.5298C6.2699 23.5298 2.58447 21.5076 2.58447 19.0922C2.58447 16.6767 6.32255 14.7107 10.8504 14.7107C15.4308 14.7107 19.1163 16.6767 19.1163 19.0922Z" fill="white" stroke="#0760D8" stroke-width="1.5" stroke-miterlimit="10"/>
<path d="M2.51843 15.2659V19.0856C2.51843 21.5011 6.25651 23.5233 10.7843 23.5233C15.3121 23.5233 19.1029 21.5572 19.1029 19.0856V15.2659" fill="#0760D8"/>
<path d="M2.51843 15.2659V19.0856C2.51843 21.5011 6.25651 23.5233 10.7843 23.5233C15.3121 23.5233 19.1029 21.5572 19.1029 19.0856V15.2659" stroke="white" stroke-width="1.5" stroke-miterlimit="10"/>
<path d="M19.1099 15.2113C19.1099 17.6267 15.4245 19.649 10.844 19.649C6.26355 19.649 2.57812 17.6267 2.57812 15.2113C2.57812 12.7959 6.3162 10.8298 10.844 10.8298C15.4245 10.8298 19.1099 12.7959 19.1099 15.2113Z" fill="#0760D8" stroke="white" stroke-width="1.5" stroke-miterlimit="10"/>
<path d="M1 9.81055V13.6303C1 16.0457 4.73808 18.068 9.31854 18.068C13.899 18.068 17.6371 16.1019 17.6371 13.6303V9.81055" fill="#0760D8"/>
<path d="M1 9.81055V13.6303C1 16.0457 4.73808 18.068 9.31854 18.068C13.899 18.068 17.6371 16.1019 17.6371 13.6303V9.81055" stroke="white" stroke-width="1.5" stroke-miterlimit="10"/>
<path d="M17.5844 9.81141C17.5844 12.2268 13.899 14.2491 9.31854 14.2491C4.73808 14.2491 1 12.2268 1 9.81141C1 7.39598 4.73808 5.42993 9.26589 5.42993C13.8464 5.42993 17.5844 7.33981 17.5844 9.81141Z" fill="#0760D8" stroke="white" stroke-width="1.5" stroke-miterlimit="10"/>
<path d="M2.95032 5.38062V9.20037C2.95032 11.6158 6.6884 13.638 11.2162 13.638C15.744 13.638 19.5347 11.672 19.5347 9.20037V5.38062" fill="#0760D8"/>
<path d="M2.95032 5.38062V9.20037C2.95032 11.6158 6.6884 13.638 11.2162 13.638C15.744 13.638 19.5347 11.672 19.5347 9.20037V5.38062" stroke="white" stroke-width="1.5" stroke-miterlimit="10"/>
<path d="M19.4821 5.38148C19.4821 7.79691 15.7967 9.81914 11.2162 9.81914C6.63575 9.81914 2.95032 7.79691 2.95032 5.38148C2.95032 2.96605 6.63575 1 11.2162 1C15.7967 1 19.4821 2.96605 19.4821 5.38148Z" fill="#0760D8" stroke="white" stroke-width="1.5" stroke-miterlimit="10"/>
<path d="M17 25C21.4183 25 25 21.4183 25 17C25 12.5817 21.4183 9 17 9C12.5817 9 9 12.5817 9 17C9 21.4183 12.5817 25 17 25Z" fill="#0760D8" stroke="white" stroke-width="1.5" stroke-miterlimit="10"/>
</svg>
