<svg width="53" height="52" viewBox="0 0 53 52" fill="none" xmlns="http://www.w3.org/2000/svg">
<g filter="url(#filter0_d_437_3148)">
<circle cx="24.4668" cy="20" r="16" fill="#1CB7EB"/>
</g>
<path d="M31.6168 17.662C31.6275 17.812 31.6275 17.962 31.6275 18.112C31.6275 22.687 28.1454 27.9584 21.7811 27.9584C19.8204 27.9584 17.9989 27.3905 16.4668 26.4049C16.7454 26.437 17.0132 26.4477 17.3025 26.4477C18.9203 26.4477 20.4096 25.9013 21.5989 24.9692C20.0775 24.937 18.8025 23.9406 18.3632 22.5691C18.5775 22.6013 18.7918 22.6227 19.0168 22.6227C19.3275 22.6227 19.6382 22.5798 19.9275 22.5049C18.3418 22.1834 17.1525 20.7906 17.1525 19.1084V19.0656C17.6132 19.3227 18.1489 19.4834 18.7168 19.5048C17.7846 18.8834 17.1739 17.8227 17.1739 16.6227C17.1739 15.9798 17.3453 15.3906 17.6453 14.8763C19.3489 16.9763 21.9096 18.3477 24.781 18.4977C24.7275 18.2406 24.6953 17.9727 24.6953 17.7049C24.6953 15.7977 26.2382 14.2441 28.156 14.2441C29.1525 14.2441 30.0525 14.662 30.6846 15.337C31.4667 15.187 32.2167 14.8977 32.8811 14.5013C32.6239 15.3049 32.0775 15.9799 31.3596 16.4084C32.0561 16.3335 32.7311 16.1406 33.3525 15.8727C32.8811 16.5584 32.2918 17.1691 31.6168 17.662Z" fill="white"/>
<defs>
<filter id="filter0_d_437_3148" x="0.466797" y="0" width="52" height="52" filterUnits="userSpaceOnUse" color-interpolation-filters="sRGB">
<feFlood flood-opacity="0" result="BackgroundImageFix"/>
<feColorMatrix in="SourceAlpha" type="matrix" values="0 0 0 0 0 0 0 0 0 0 0 0 0 0 0 0 0 0 127 0" result="hardAlpha"/>
<feOffset dx="2" dy="6"/>
<feGaussianBlur stdDeviation="5"/>
<feColorMatrix type="matrix" values="0 0 0 0 0 0 0 0 0 0 0 0 0 0 0 0 0 0 0.08 0"/>
<feBlend mode="normal" in2="BackgroundImageFix" result="effect1_dropShadow_437_3148"/>
<feBlend mode="normal" in="SourceGraphic" in2="effect1_dropShadow_437_3148" result="shape"/>
</filter>
</defs>
</svg>
