<svg width="136" height="22" viewBox="0 0 136 22" fill="none" xmlns="http://www.w3.org/2000/svg">
<path d="M40.7749 6.2L36.5329 16H34.2929L30.0649 6.2H32.5149L35.4969 13.2L38.5209 6.2H40.7749ZM41.7159 8.468H43.8999V16H41.7159V8.468ZM42.8079 7.418C42.4065 7.418 42.0799 7.30133 41.8279 7.068C41.5759 6.83467 41.4499 6.54533 41.4499 6.2C41.4499 5.85467 41.5759 5.56533 41.8279 5.332C42.0799 5.09867 42.4065 4.982 42.8079 4.982C43.2092 4.982 43.5359 5.094 43.7879 5.318C44.0399 5.542 44.1659 5.822 44.1659 6.158C44.1659 6.522 44.0399 6.82533 43.7879 7.068C43.5359 7.30133 43.2092 7.418 42.8079 7.418ZM53.7388 5.612V16H51.6528V15.132C51.1115 15.7853 50.3275 16.112 49.3008 16.112C48.5915 16.112 47.9475 15.9533 47.3688 15.636C46.7995 15.3187 46.3515 14.866 46.0248 14.278C45.6981 13.69 45.5348 13.0087 45.5348 12.234C45.5348 11.4593 45.6981 10.778 46.0248 10.19C46.3515 9.602 46.7995 9.14933 47.3688 8.832C47.9475 8.51467 48.5915 8.356 49.3008 8.356C50.2621 8.356 51.0135 8.65933 51.5548 9.266V5.612H53.7388ZM49.6788 14.32C50.2295 14.32 50.6868 14.1333 51.0508 13.76C51.4148 13.3773 51.5968 12.8687 51.5968 12.234C51.5968 11.5993 51.4148 11.0953 51.0508 10.722C50.6868 10.3393 50.2295 10.148 49.6788 10.148C49.1188 10.148 48.6568 10.3393 48.2928 10.722C47.9288 11.0953 47.7468 11.5993 47.7468 12.234C47.7468 12.8687 47.9288 13.3773 48.2928 13.76C48.6568 14.1333 49.1188 14.32 49.6788 14.32ZM63.2782 12.262C63.2782 12.29 63.2642 12.486 63.2362 12.85H57.5382C57.6408 13.3167 57.8835 13.6853 58.2662 13.956C58.6488 14.2267 59.1248 14.362 59.6942 14.362C60.0862 14.362 60.4315 14.306 60.7302 14.194C61.0382 14.0727 61.3228 13.886 61.5842 13.634L62.7462 14.894C62.0368 15.706 61.0008 16.112 59.6382 16.112C58.7888 16.112 58.0375 15.9487 57.3842 15.622C56.7308 15.286 56.2268 14.824 55.8722 14.236C55.5175 13.648 55.3402 12.9807 55.3402 12.234C55.3402 11.4967 55.5128 10.834 55.8582 10.246C56.2128 9.64867 56.6935 9.18667 57.3002 8.86C57.9162 8.524 58.6022 8.356 59.3582 8.356C60.0955 8.356 60.7628 8.51467 61.3602 8.832C61.9575 9.14933 62.4242 9.60667 62.7602 10.204C63.1055 10.792 63.2782 11.478 63.2782 12.262ZM59.3722 10.008C58.8775 10.008 58.4622 10.148 58.1262 10.428C57.7902 10.708 57.5848 11.0907 57.5102 11.576H61.2202C61.1455 11.1 60.9402 10.722 60.6042 10.442C60.2682 10.1527 59.8575 10.008 59.3722 10.008ZM68.4562 16.112C67.6629 16.112 66.9489 15.9487 66.3142 15.622C65.6889 15.286 65.1989 14.824 64.8442 14.236C64.4895 13.648 64.3122 12.9807 64.3122 12.234C64.3122 11.4873 64.4895 10.82 64.8442 10.232C65.1989 9.644 65.6889 9.18667 66.3142 8.86C66.9489 8.524 67.6629 8.356 68.4562 8.356C69.2495 8.356 69.9589 8.524 70.5842 8.86C71.2095 9.18667 71.6995 9.644 72.0542 10.232C72.4089 10.82 72.5862 11.4873 72.5862 12.234C72.5862 12.9807 72.4089 13.648 72.0542 14.236C71.6995 14.824 71.2095 15.286 70.5842 15.622C69.9589 15.9487 69.2495 16.112 68.4562 16.112ZM68.4562 14.32C69.0162 14.32 69.4735 14.1333 69.8282 13.76C70.1922 13.3773 70.3742 12.8687 70.3742 12.234C70.3742 11.5993 70.1922 11.0953 69.8282 10.722C69.4735 10.3393 69.0162 10.148 68.4562 10.148C67.8962 10.148 67.4342 10.3393 67.0702 10.722C66.7062 11.0953 66.5242 11.5993 66.5242 12.234C66.5242 12.8687 66.7062 13.3773 67.0702 13.76C67.4342 14.1333 67.8962 14.32 68.4562 14.32ZM80.4749 8.048H77.3389V6.2H85.8789V8.048H82.7429V16H80.4749V8.048ZM94.5091 8.468V16H92.4371V15.104C92.1478 15.4307 91.8024 15.6827 91.4011 15.86C90.9998 16.028 90.5658 16.112 90.0991 16.112C89.1098 16.112 88.3258 15.8273 87.7471 15.258C87.1684 14.6887 86.8791 13.844 86.8791 12.724V8.468H89.0631V12.402C89.0631 13.6153 89.5718 14.222 90.5891 14.222C91.1118 14.222 91.5318 14.054 91.8491 13.718C92.1664 13.3727 92.3251 12.864 92.3251 12.192V8.468H94.5091ZM101.53 15.636C101.316 15.7947 101.05 15.916 100.732 16C100.424 16.0747 100.098 16.112 99.7524 16.112C98.8564 16.112 98.1611 15.8833 97.6664 15.426C97.1811 14.9687 96.9384 14.2967 96.9384 13.41V10.316H95.7764V8.636H96.9384V6.802H99.1224V8.636H100.998V10.316H99.1224V13.382C99.1224 13.6993 99.2018 13.9467 99.3604 14.124C99.5284 14.292 99.7618 14.376 100.06 14.376C100.406 14.376 100.7 14.2827 100.942 14.096L101.53 15.636ZM106.248 16.112C105.455 16.112 104.741 15.9487 104.106 15.622C103.481 15.286 102.991 14.824 102.636 14.236C102.281 13.648 102.104 12.9807 102.104 12.234C102.104 11.4873 102.281 10.82 102.636 10.232C102.991 9.644 103.481 9.18667 104.106 8.86C104.741 8.524 105.455 8.356 106.248 8.356C107.041 8.356 107.751 8.524 108.376 8.86C109.001 9.18667 109.491 9.644 109.846 10.232C110.201 10.82 110.378 11.4873 110.378 12.234C110.378 12.9807 110.201 13.648 109.846 14.236C109.491 14.824 109.001 15.286 108.376 15.622C107.751 15.9487 107.041 16.112 106.248 16.112ZM106.248 14.32C106.808 14.32 107.265 14.1333 107.62 13.76C107.984 13.3773 108.166 12.8687 108.166 12.234C108.166 11.5993 107.984 11.0953 107.62 10.722C107.265 10.3393 106.808 10.148 106.248 10.148C105.688 10.148 105.226 10.3393 104.862 10.722C104.498 11.0953 104.316 11.5993 104.316 12.234C104.316 12.8687 104.498 13.3773 104.862 13.76C105.226 14.1333 105.688 14.32 106.248 14.32ZM114.064 9.462C114.325 9.098 114.675 8.82267 115.114 8.636C115.562 8.44933 116.075 8.356 116.654 8.356V10.372C116.411 10.3533 116.248 10.344 116.164 10.344C115.538 10.344 115.048 10.5213 114.694 10.876C114.339 11.2213 114.162 11.744 114.162 12.444V16H111.978V8.468H114.064V9.462ZM118.092 8.468H120.276V16H118.092V8.468ZM119.184 7.418C118.783 7.418 118.456 7.30133 118.204 7.068C117.952 6.83467 117.826 6.54533 117.826 6.2C117.826 5.85467 117.952 5.56533 118.204 5.332C118.456 5.09867 118.783 4.982 119.184 4.982C119.586 4.982 119.912 5.094 120.164 5.318C120.416 5.542 120.542 5.822 120.542 6.158C120.542 6.522 120.416 6.82533 120.164 7.068C119.912 7.30133 119.586 7.418 119.184 7.418ZM125.481 8.356C126.648 8.356 127.544 8.636 128.169 9.196C128.795 9.74667 129.107 10.582 129.107 11.702V16H127.063V15.062C126.653 15.762 125.887 16.112 124.767 16.112C124.189 16.112 123.685 16.014 123.255 15.818C122.835 15.622 122.513 15.3513 122.289 15.006C122.065 14.6607 121.953 14.2687 121.953 13.83C121.953 13.13 122.215 12.5793 122.737 12.178C123.269 11.7767 124.086 11.576 125.187 11.576H126.923C126.923 11.1 126.779 10.736 126.489 10.484C126.2 10.2227 125.766 10.092 125.187 10.092C124.786 10.092 124.389 10.1573 123.997 10.288C123.615 10.4093 123.288 10.5773 123.017 10.792L122.233 9.266C122.644 8.97667 123.134 8.75267 123.703 8.594C124.282 8.43533 124.875 8.356 125.481 8.356ZM125.313 14.642C125.687 14.642 126.018 14.558 126.307 14.39C126.597 14.2127 126.802 13.956 126.923 13.62V12.85H125.425C124.529 12.85 124.081 13.144 124.081 13.732C124.081 14.012 124.189 14.236 124.403 14.404C124.627 14.5627 124.931 14.642 125.313 14.642ZM131.224 5.612H133.408V16H131.224V5.612Z" fill="#312B2B"/>
<circle cx="11" cy="11" r="11" fill="#FD9125"/>
<path d="M10.4402 15.1332C9.78891 15.676 8.80005 15.2128 8.80005 14.365L8.80005 7.63504C8.80005 6.7872 9.78891 6.32405 10.4402 6.86682L14.4782 10.2318C14.9579 10.6316 14.9579 11.3684 14.4782 11.7682L10.4402 15.1332Z" fill="white"/>
</svg>
