<svg width="73" height="68" viewBox="0 0 73 68" fill="none" xmlns="http://www.w3.org/2000/svg">
<path d="M64.087 63.1853C66.4562 60.7761 68.2851 57.6721 69.4905 54.4753C71.1946 49.935 71.9428 45.0241 72.4416 40.1595C74.0626 24.3611 69.6567 6.15357 54.4438 1.28896C44.2188 -1.95411 33.1624 1.38163 23.8102 6.1999C10.0937 13.2883 -9.27572 35.3875 6.89316 51.7882C15.5803 60.5908 29.6294 57.3014 39.896 62.0734C44.7176 64.2972 49.2482 68.4669 54.7348 67.9572C58.3094 67.6329 61.5099 65.8261 64.087 63.1853Z" fill="url(#paint0_linear_0_1)"/>
<path d="M48.7323 46.1967C48.7323 51.1624 41.1548 55.3197 31.7372 55.3197C22.3195 55.3197 14.7421 51.1624 14.7421 46.1967C14.7421 41.231 22.4278 37.1892 31.7372 37.1892C41.1548 37.1892 48.7323 41.231 48.7323 46.1967Z" fill="white" stroke="#232358" stroke-miterlimit="10"/>
<path d="M14.5881 38.3254V46.1781C14.5881 51.1438 22.2738 55.3011 31.5832 55.3011C40.8927 55.3011 48.6866 51.2593 48.6866 46.1781V38.3254" fill="#EEF6FC"/>
<path d="M14.5881 38.3254V46.1781C14.5881 51.1438 22.2738 55.3011 31.5832 55.3011C40.8927 55.3011 48.6866 51.2593 48.6866 46.1781V38.3254" stroke="#0760D8" stroke-width="1.5" stroke-miterlimit="10"/>
<path d="M48.709 38.2116C48.709 43.1773 41.1315 47.3346 31.7139 47.3346C22.2962 47.3346 14.7188 43.1773 14.7188 38.2116C14.7188 33.2459 22.4044 29.2041 31.7139 29.2041C41.1315 29.2041 48.709 33.2459 48.709 38.2116Z" fill="white" stroke="#0760D8" stroke-width="1.5" stroke-miterlimit="10"/>
<path d="M11.4766 27.1133V34.966C11.4766 39.9317 19.1622 44.089 28.5799 44.089C37.9976 44.089 45.6833 40.0471 45.6833 34.966V27.1133" fill="#EEF6FC"/>
<path d="M11.4766 27.1133V34.966C11.4766 39.9317 19.1622 44.089 28.5799 44.089C37.9976 44.089 45.6833 40.0471 45.6833 34.966V27.1133" stroke="#0760D8" stroke-width="1.5" stroke-miterlimit="10"/>
<path d="M45.575 27.1179C45.575 32.0835 37.9976 36.2408 28.5799 36.2408C19.1622 36.2408 11.4766 32.0835 11.4766 27.1179C11.4766 22.1522 19.1622 18.1104 28.4717 18.1104C37.8893 18.1104 45.575 22.0367 45.575 27.1179Z" fill="#EEF6FC" stroke="#0760D8" stroke-width="1.5" stroke-miterlimit="10"/>
<path d="M15.4965 18.0029V25.8556C15.4965 30.8213 23.1821 34.9786 32.4916 34.9786C41.801 34.9786 49.5949 30.9368 49.5949 25.8556V18.0029" fill="#EEF6FC"/>
<path d="M15.4965 18.0029V25.8556C15.4965 30.8213 23.1821 34.9786 32.4916 34.9786C41.801 34.9786 49.5949 30.9368 49.5949 25.8556V18.0029" stroke="#0760D8" stroke-width="1.5" stroke-miterlimit="10"/>
<path d="M49.4867 18.0075C49.4867 22.9732 41.9093 27.1305 32.4916 27.1305C23.074 27.1305 15.4965 22.9732 15.4965 18.0075C15.4965 13.0418 23.074 9 32.4916 9C41.9093 9 49.4867 13.0418 49.4867 18.0075Z" fill="#EEF6FC" stroke="#0760D8" stroke-width="1.5" stroke-miterlimit="10"/>
<path d="M46.999 58C55.8356 58 62.999 50.8366 62.999 42C62.999 33.1634 55.8356 26 46.999 26C38.1625 26 30.999 33.1634 30.999 42C30.999 50.8366 38.1625 58 46.999 58Z" fill="url(#paint1_linear_0_1)"/>
<path d="M51.2495 49H41.8745V47.875C43.3745 47.125 44.2495 45.625 44.2495 43.875L43.8745 40.875C43.7495 40.25 43.6245 39.25 43.6245 38.375C43.6245 35.75 45.4995 34 47.9995 34C49.1245 34 49.9995 34.25 50.4995 34.625" stroke="white" stroke-width="2" stroke-miterlimit="10" stroke-linecap="round" stroke-linejoin="round"/>
<path d="M40.999 41.75H47.624" stroke="white" stroke-width="2" stroke-miterlimit="10" stroke-linecap="round" stroke-linejoin="round"/>
<path d="M45.6444 57.085C54.4809 57.085 61.6443 49.9215 61.6443 41.085C61.6443 32.2484 54.4809 25.085 45.6444 25.085C36.8078 25.085 29.6443 32.2484 29.6443 41.085C29.6443 49.9215 36.8078 57.085 45.6444 57.085Z" stroke="#0760D8" stroke-miterlimit="10"/>
<defs>
<linearGradient id="paint0_linear_0_1" x1="77.9683" y1="68" x2="-2.63276" y2="4.28946" gradientUnits="userSpaceOnUse">
<stop stop-color="#D8E9F7"/>
<stop offset="1" stop-color="#F7FBFE"/>
</linearGradient>
<linearGradient id="paint1_linear_0_1" x1="46.999" y1="26" x2="46.999" y2="58" gradientUnits="userSpaceOnUse">
<stop stop-color="#1373FB"/>
<stop offset="1" stop-color="#388BFF"/>
</linearGradient>
</defs>
</svg>
